<svg width="24" height="24" viewBox="0 0 24 24" fill="none" xmlns="http://www.w3.org/2000/svg">
<g clip-path="url(#clip0_1_523)">
<path d="M13.0984 0H14.6528L15.6684 0.0207254L16.4974 0.0414508L16.9326 0.0621762C18.2176 0.124352 19.0881 0.331606 19.8342 0.621762C20.6218 0.932643 21.285 1.34715 21.9689 2.01036C22.6321 2.67358 23.0466 3.35751 23.3575 4.14508C23.6269 4.82902 23.8135 5.59585 23.8964 6.65285L23.9585 7.79275L23.9793 8.87047L24 10.9223V14.7772L23.9793 15.9793L23.9378 16.9741C23.8756 18.2591 23.6684 19.1295 23.3782 19.8964C23.0674 20.6839 22.6528 21.3472 21.9896 22.0311C21.3264 22.6943 20.6632 23.1088 19.8549 23.4197C19.171 23.6891 18.4041 23.8756 17.3471 23.9585L16.0622 24.0207L14.9223 24.0415L13.0777 24.0622H9.2228L8.02073 24.0415L7.02591 24C5.74093 23.9378 4.87047 23.7306 4.12435 23.4404C3.33679 23.1295 2.67357 22.715 1.98964 22.0518C1.32642 21.3886 0.911917 20.7047 0.601036 19.9171C0.331606 19.2332 0.145078 18.4663 0.0621762 17.4093L0.0207254 16.5596L0 15.7306L0 14.6528V12.7461V9.32642L0.0207254 8.31088L0.0414508 7.48186L0.0621762 7.04663C0.124352 5.78238 0.331606 4.91192 0.621762 4.14508C0.932642 3.35751 1.34715 2.6943 2.01036 2.01036C2.67357 1.34715 3.35751 0.932643 4.14508 0.621762C4.82902 0.352332 5.59585 0.165803 6.65285 0.0829016L7.50259 0.0414508L8.33161 0.0207254L9.32642 0H10.8808C10.9016 0 13.0984 0 13.0984 0ZM14.6114 2.17617H9.36788L8.45596 2.19689L7.12953 2.23834C6.79793 2.25907 6.46632 2.27979 6.13471 2.32124L5.94819 2.34197C5.82383 2.36269 5.67876 2.38342 5.5544 2.42487L5.40933 2.46632C5.36788 2.48705 5.32642 2.48705 5.28497 2.50777L5.01554 2.59067L4.89119 2.63212C4.33161 2.8601 3.93782 3.10881 3.50259 3.52332C3.08808 3.93782 2.81865 4.35233 2.6114 4.91192L2.54922 5.18135L2.50777 5.3057C2.40415 5.65803 2.30052 6.15544 2.23834 6.83938L2.21762 7.35751L2.17617 8.43523L2.15544 10.2798V14.5492L2.17617 15.8756L2.21762 16.8497C2.23834 17.2021 2.25907 17.5544 2.32124 17.9067L2.34197 18.0725C2.34197 18.0933 2.34197 18.1347 2.36269 18.1554L2.40415 18.3005L2.4456 18.4456C2.4456 18.4663 2.46632 18.487 2.46632 18.5078L2.50777 18.6321L2.54922 18.7565L2.56995 18.8187L2.65285 19.0674C2.8601 19.6269 3.12953 20.0207 3.54404 20.456C3.95855 20.8705 4.37306 21.1399 4.93264 21.3472L5.18135 21.4301L5.28497 21.4715L5.34715 21.4922L5.4715 21.5337C5.49223 21.5337 5.51295 21.5544 5.53368 21.5544L5.67876 21.5959L5.82383 21.6373L5.98964 21.658C6.30052 21.7202 6.67357 21.7617 7.12953 21.7824L8.60104 21.8446L10.5492 21.8653H14.7772L15.8549 21.8446L16.829 21.8031C17.285 21.7824 17.658 21.7409 17.9689 21.6788L18.1347 21.658L18.2798 21.6166L18.4456 21.5544L18.5078 21.5337L18.6321 21.4922L18.7565 21.4508L18.8187 21.4301L19.0674 21.3472C19.6269 21.1399 20.0207 20.8705 20.456 20.456C20.8705 20.0415 21.1399 19.6269 21.3471 19.0674L21.43 18.8187C21.5544 18.4456 21.6788 17.9275 21.7409 17.1399L21.8031 15.8756L21.8238 14.5907V12.7461V9.40933L21.8031 8.12435L21.7617 7.15026C21.7409 6.8601 21.7202 6.54922 21.6788 6.25907L21.658 6.07254C21.6373 5.98964 21.6373 5.90674 21.6166 5.82383L21.5751 5.67876C21.5544 5.63731 21.5544 5.57513 21.5337 5.53368L21.4922 5.40933L21.4715 5.34715L21.3679 5.01554L21.3471 4.95337C21.1192 4.39378 20.8705 4 20.456 3.56477C20.0414 3.12953 19.6269 2.88083 19.0674 2.67358L18.943 2.63212L18.6736 2.54922L18.6114 2.48705L18.4456 2.4456C18.114 2.36269 17.6995 2.27979 17.1399 2.23834L16.2487 2.19689L15.5233 2.17617H14.6114Z" fill="url(#paint0_linear_1_523)"/>
<path d="M12 5.84456C15.399 5.84456 18.1554 8.60103 18.1554 12C18.1554 15.399 15.399 18.1554 12 18.1554C8.60104 18.1554 5.84456 15.399 5.84456 12C5.84456 8.60103 8.60104 5.84456 12 5.84456ZM12 8C9.78238 8 8 9.78238 8 12C8 14.2176 9.78238 16 12 16C14.2176 16 16 14.2176 16 12C16 9.78238 14.1969 8 12 8ZM19.8342 5.59585C19.8549 6.38342 19.2332 7.04663 18.4456 7.06736C17.658 7.08808 16.9948 6.46632 16.9741 5.67875C16.9741 5.65803 16.9741 5.61658 16.9741 5.59585C16.9948 4.80829 17.658 4.1658 18.4456 4.20725C19.2124 4.20725 19.8135 4.82901 19.8342 5.59585Z" fill="url(#paint1_linear_1_523)"/>
</g>
<defs>
<linearGradient id="paint0_linear_1_523" x1="4.84866" y1="24.1312" x2="18.9949" y2="0.135787" gradientUnits="userSpaceOnUse">
<stop stop-color="#FDD074"/>
<stop offset="0.25" stop-color="#F77F34"/>
<stop offset="0.5" stop-color="#DD326E"/>
<stop offset="0.75" stop-color="#D82B7E"/>
<stop offset="1" stop-color="#A432B1"/>
</linearGradient>
<linearGradient id="paint1_linear_1_523" x1="8.40151" y1="18.0842" x2="16.6228" y2="4.09881" gradientUnits="userSpaceOnUse">
<stop stop-color="#FDD074"/>
<stop offset="0.25" stop-color="#F77F34"/>
<stop offset="0.5" stop-color="#DD326E"/>
<stop offset="0.75" stop-color="#D82B7E"/>
<stop offset="1" stop-color="#A432B1"/>
</linearGradient>
<clipPath id="clip0_1_523">
<rect width="24" height="24" fill="white"/>
</clipPath>
</defs>
</svg>
