<svg width="24" height="24" viewBox="0 0 24 24" fill="none" xmlns="http://www.w3.org/2000/svg">
<path d="M9.6691 9.46756V8.54289C9.34823 8.49732 9.02446 8.47387 8.70044 8.47229C4.73649 8.47229 1.51149 11.6978 1.51149 15.6618C1.51149 18.0933 2.72673 20.2458 4.58054 21.5475C3.33922 20.22 2.64901 18.4703 2.65007 16.6528C2.65007 12.7452 5.78339 9.55871 9.6691 9.46756Z" fill="#00F2EA"/>
<path d="M9.83875 19.9358C11.6075 19.9358 13.0501 18.5288 13.1159 16.7753L13.122 1.12264H15.9816C15.9205 0.795718 15.8896 0.46405 15.8894 0.131592H11.9837L11.9771 15.7848C11.912 17.5377 10.4686 18.9442 8.70043 18.9442C8.16961 18.9445 7.64668 18.8151 7.17724 18.5672C7.79237 19.4255 8.78289 19.9347 9.83875 19.9358ZM21.323 6.43591V5.56604C20.2722 5.5671 19.2437 5.26125 18.3641 4.68643C19.1355 5.57447 20.1737 6.18828 21.3236 6.43591" fill="#00F2EA"/>
<path d="M18.3641 4.68565C17.5021 3.69934 17.0272 2.43352 17.0277 1.12344H15.9813C16.255 2.58658 17.1162 3.87399 18.3641 4.68565ZM8.70044 12.378C6.88799 12.3801 5.41932 13.8488 5.41721 15.6612C5.41827 16.8815 6.09583 18.0006 7.17671 18.5675C6.77286 18.0106 6.55553 17.3407 6.55553 16.6528C6.55737 14.8404 8.02604 13.3712 9.83875 13.3691C10.177 13.3691 10.5013 13.4249 10.8074 13.5211V9.53369C10.4865 9.48811 10.1628 9.46467 9.83875 9.46309C9.78185 9.46309 9.72573 9.46625 9.66936 9.4673V12.53C9.35587 12.4304 9.02921 12.3791 8.70044 12.378Z" fill="#FF004F"/>
<path d="M21.323 6.43591V9.4715C19.2975 9.4715 17.4215 8.82371 15.8891 7.72412V15.6615C15.8891 19.6254 12.6646 22.8504 8.7007 22.8504C7.16881 22.8504 5.74836 22.367 4.5808 21.5472C5.93777 23.0106 7.84321 23.842 9.83875 23.8415C13.8027 23.8415 17.0277 20.6165 17.0277 16.6531V8.7157C18.6107 9.85401 20.5119 10.4654 22.4616 10.4631V6.5563C22.0707 6.5563 21.6905 6.51389 21.3228 6.43512" fill="#FF004F"/>
<path d="M15.8889 15.6612V7.72387C17.4719 8.86245 19.3731 9.47362 21.3228 9.47125V6.43592C20.1731 6.18803 19.1349 5.57396 18.3639 4.68565C17.116 3.87399 16.2548 2.58658 15.9811 1.12344H13.1217L13.1157 16.7761C13.0501 18.529 11.6072 19.936 9.83849 19.936C8.7829 19.935 7.79211 19.4255 7.17724 18.5677C6.09636 18.0011 5.41853 16.882 5.41722 15.6615C5.41933 13.8491 6.88799 12.3804 8.70044 12.3783C9.03817 12.3783 9.36246 12.4336 9.6691 12.5303V9.46756C5.7834 9.55871 2.65007 12.7453 2.65007 16.6528C2.65007 18.5425 3.38427 20.2627 4.58054 21.5475C5.78656 22.3965 7.22572 22.8515 8.70044 22.8502C12.6646 22.8502 15.8889 19.6252 15.8889 15.6612Z" fill="black"/>
</svg>
